ply
format ascii 1.0
element vertex 98
property float x
property float y
property float z
element face 128
property list uchar int vertex_indices
end_header
-24 165 203
-13 160 201
-21 160 201
-30 160 201
-9 155 198
-21 155 198
-33 155 198
-5 150 195
-20 150 195
-36 150 195
-1 145 192
-19 145 192
-38 145 192
1 140 189
-19 140 189
-40 140 189
4 135 186
-18 135 186
-41 135 186
7 130 182
-18 130 182
-43 130 182
10 125 178
-17 125 178
-44 125 178
12 120 174
-16 120 174
-45 120 174
14 115 170
-16 115 170
-46 115 170
16 110 166
-15 110 166
-46 110 166
18 105 161
-14 105 161
-47 105 161
19 100 157
-14 100 157
-47 100 157
20 95 152
-13 95 152
-46 95 152
21 90 147
-12 90 147
-46 90 147
22 85 142
-11 85 142
-45 85 142
22 80 137
-11 80 137
-44 80 137
23 75 131
-10 75 131
-43 75 131
23 70 125
-9 70 125
-42 70 125
22 65 119
-9 65 119
-40 65 119
22 60 113
-8 60 113
-38 60 113
21 55 107
-7 55 107
-36 55 107
20 50 101
-7 50 101
-34 50 101
19 45 94
-6 45 94
-31 45 94
17 40 88
-5 40 88
-28 40 88
15 35 81
-5 35 81
-25 35 81
13 30 73
-4 30 73
-22 30 73
11 25 66
-3 25 66
-18 25 66
9 20 59
-3 20 59
-15 20 59
6 15 51
-2 15 51
-11 15 51
3 10 43
-1 10 43
-6 10 43
0 5 35
-1 5 35
-2 5 35
0 0 0
3 0 1 2
3 0 2 3
3 1 4 5
3 1 5 2
3 2 5 3
3 3 5 6
3 4 7 8
3 4 8 5
3 5 8 6
3 6 8 9
3 7 10 11
3 7 11 8
3 8 11 9
3 9 11 12
3 10 13 14
3 10 14 11
3 11 14 12
3 12 14 15
3 13 16 17
3 13 17 14
3 14 17 15
3 15 17 18
3 16 19 20
3 16 20 17
3 17 20 18
3 18 20 21
3 19 22 23
3 19 23 20
3 20 23 21
3 21 23 24
3 22 25 26
3 22 26 23
3 23 26 24
3 24 26 27
3 25 28 29
3 25 29 26
3 26 29 27
3 27 29 30
3 28 31 32
3 28 32 29
3 29 32 30
3 30 32 33
3 31 34 35
3 31 35 32
3 32 35 33
3 33 35 36
3 34 37 38
3 34 38 35
3 35 38 36
3 36 38 39
3 37 40 41
3 37 41 38
3 38 41 39
3 39 41 42
3 40 43 44
3 40 44 41
3 41 44 42
3 42 44 45
3 43 46 47
3 43 47 44
3 44 47 45
3 45 47 48
3 46 49 50
3 46 50 47
3 47 50 48
3 48 50 51
3 49 52 53
3 49 53 50
3 50 53 51
3 51 53 54
3 52 55 56
3 52 56 53
3 53 56 54
3 54 56 57
3 55 58 59
3 55 59 56
3 56 59 57
3 57 59 60
3 58 61 62
3 58 62 59
3 59 62 60
3 60 62 63
3 61 64 65
3 61 65 62
3 62 65 63
3 63 65 66
3 64 67 68
3 64 68 65
3 65 68 66
3 66 68 69
3 67 70 71
3 67 71 68
3 68 71 69
3 69 71 72
3 70 73 74
3 70 74 71
3 71 74 72
3 72 74 75
3 73 76 77
3 73 77 74
3 74 77 75
3 75 77 78
3 76 79 80
3 76 80 77
3 77 80 78
3 78 80 81
3 79 82 83
3 79 83 80
3 80 83 81
3 81 83 84
3 82 85 86
3 82 86 83
3 83 86 84
3 84 86 87
3 85 88 89
3 85 89 86
3 86 89 87
3 87 89 90
3 88 91 92
3 88 92 89
3 89 92 90
3 90 92 93
3 91 94 95
3 91 95 92
3 92 95 93
3 93 95 96
3 97 95 94
3 97 96 95
